<?xml version="1.0" encoding="utf-8"?>
<!-- Generator: Adobe Illustrator 16.0.0, SVG Export Plug-In . SVG Version: 6.00 Build 0)  -->
<!DOCTYPE svg PUBLIC "-//W3C//DTD SVG 1.1//EN" "http://www.w3.org/Graphics/SVG/1.1/DTD/svg11.dtd">
<svg version="1.1" id="Layer_1" xmlns="http://www.w3.org/2000/svg" xmlns:xlink="http://www.w3.org/1999/xlink" x="0px" y="0px"
	 width="174.083px" height="39.333px" viewBox="0 0 174.083 39.333" enable-background="new 0 0 174.083 39.333"
	 xml:space="preserve">
<path fill="#34607B" d="M172.005,11.669c0,1.104-0.896,2-2,2h-20.458c-1.104,0-2-0.896-2-2V3.836c0-1.104,0.896-2,2-2h20.458
	c1.104,0,2,0.896,2,2V11.669z"/>
<g>
	<path fill="#34607B" d="M12.156,32.15c-3.087,0-5.758-1.092-7.94-3.246c-2.175-2.175-3.277-4.833-3.277-7.902
		c0-2.751,0.921-5.237,2.738-7.39c2.239-2.64,5.174-3.978,8.724-3.978c1.942,0,3.843,0.531,5.65,1.58l0.162,0.093v4.644
		l-0.534-0.447c-1.77-1.479-3.619-2.23-5.497-2.23c-2.063,0-3.826,0.751-5.238,2.232c-1.426,1.479-2.149,3.313-2.149,5.454
		c0,2.113,0.722,3.919,2.146,5.368c1.422,1.449,3.19,2.183,5.255,2.183c1.067,0,1.98-0.174,2.715-0.516
		c0.426-0.178,0.865-0.416,1.317-0.714c0.454-0.3,0.942-0.669,1.45-1.097l0.535-0.45v4.73l-0.165,0.093
		C16.189,31.615,14.206,32.15,12.156,32.15z"/>
	<path fill="#34607B" d="M17.889,11.495v3.76c-1.838-1.537-3.74-2.306-5.706-2.306c-2.166,0-3.99,0.778-5.473,2.334
		c-1.492,1.547-2.238,3.439-2.238,5.678c0,2.211,0.746,4.076,2.238,5.597c1.492,1.52,3.321,2.279,5.487,2.279
		c1.119,0,2.07-0.182,2.853-0.546c0.437-0.183,0.89-0.429,1.358-0.737c0.468-0.31,0.962-0.683,1.481-1.119v3.842
		c-1.82,1.033-3.731,1.549-5.732,1.549c-3.012,0-5.583-1.051-7.712-3.152c-2.121-2.12-3.18-4.677-3.18-7.67
		c0-2.685,0.887-5.078,2.662-7.18c2.184-2.575,5.009-3.863,8.476-3.863C14.294,9.959,16.123,10.471,17.889,11.495z"/>
	<polygon fill="#34607B" points="21.873,39.001 27.231,28.975 21.072,17.824 25.381,17.824 29.243,25.082 32.846,17.824 
		37.047,17.824 26.121,39.001 	"/>
	<path fill="#34607B" d="M27.602,28.972l-5.979-10.824h3.562l4.067,7.644l3.794-7.644h3.467L25.922,38.677h-3.507L27.602,28.972z"/>
	<polygon fill="#34607B" points="49.596,24.697 45.874,33.215 38.392,17.824 42.573,17.824 45.833,24.934 49.597,16.108 
		53.386,24.933 56.608,17.824 60.777,17.824 53.279,33.218 	"/>
	<path fill="#34607B" d="M42.364,18.148l3.48,7.589l3.753-8.804l3.781,8.804l3.439-7.589h3.44l-6.961,14.291l-3.699-8.558
		l-3.74,8.558l-6.947-14.291H42.364z"/>
	<path fill="#34607B" d="M64.104,31.769V17.824h3.721v13.945H64.104z M65.971,14.966c-0.642,0-1.197-0.229-1.649-0.682
		c-0.453-0.453-0.683-1.012-0.683-1.664c0-0.623,0.229-1.169,0.683-1.622c0.453-0.453,1.003-0.682,1.635-0.682
		c0.642,0,1.197,0.229,1.649,0.682c0.452,0.441,0.682,0.992,0.682,1.635c0,0.642-0.229,1.197-0.682,1.65
		C67.166,14.736,66.615,14.966,65.971,14.966z"/>
	<path fill="#34607B" d="M63.965,12.621c0-0.536,0.196-1,0.587-1.392c0.391-0.391,0.86-0.587,1.406-0.587
		c0.555,0,1.028,0.196,1.419,0.587c0.392,0.383,0.587,0.851,0.587,1.406c0,0.556-0.195,1.029-0.587,1.42
		c-0.382,0.391-0.851,0.586-1.406,0.586c-0.555,0-1.028-0.195-1.419-0.586S63.965,13.185,63.965,12.621z M67.5,18.148v13.294h-3.071
		V18.148H67.5z"/>
	<path fill="#34607B" d="M81.527,31.769v-7.742c0-1.233-0.162-2.081-0.483-2.521c-0.292-0.419-0.855-0.629-1.675-0.629
		c-0.908,0-1.528,0.281-1.896,0.858c-0.382,0.606-0.577,1.717-0.577,3.301v6.733h-3.735V17.824h3.735v0.828
		c0.995-0.794,2.104-1.196,3.306-1.196c1.636,0,2.935,0.528,3.86,1.569c0.797,0.884,1.201,2.321,1.201,4.27v8.475H81.527z"/>
	<path fill="#34607B" d="M73.486,18.148h3.085v1.229c1.073-1.064,2.284-1.597,3.63-1.597c1.546,0,2.752,0.486,3.617,1.46
		c0.746,0.828,1.119,2.179,1.119,4.054v8.148h-3.085v-7.416c0-1.309-0.182-2.213-0.546-2.713c-0.354-0.509-1-0.764-1.938-0.764
		c-1.019,0-1.742,0.336-2.169,1.009c-0.419,0.664-0.628,1.822-0.628,3.476v6.407h-3.085V18.148z"/>
</g>
<path fill="#34607B" d="M102.634,32.105v-0.989h3.572V16.947h1.172v15.158H102.634z M91.434,32.087v-9.584h7.69v5.376h-3.991v-1.007
	h2.821v-3.362h-5.349v7.587h5.54l1.182-1.582l0.987,0.551l-1.527,2.021H91.434z M102.236,28.383v-9.8h1.171v9.8H102.236z
	 M95.28,18.605l-4.303,3.076l-0.726-0.755l4.441-3.222v-0.811h1.171v0.811l4.459,3.22l-0.749,0.767L95.28,18.605z"/>
<path fill="#34607B" d="M110.762,32.07v-1.008h5.704V16.875h1.171v14.187h3.907V16.875h1.17v14.187h5.704v1.008H110.762z
	 M111.136,19.939l1.148-0.196l1.972,8.098l-1.131,0.205L111.136,19.939z M124.943,27.841l1.954-8.098l1.148,0.196l-1.971,8.107
	L124.943,27.841z"/>
<path fill="#34607B" d="M147.632,32.221v-6.329h-2.405v5.012l-1.164,1.184l-0.711-0.509l0.959-0.969v-5.507h4.238v6.33h0.919v0.789
	H147.632z M135.012,32.221v-0.789h0.689v-5.54h-2.635v4.825l-0.561,1.374l-0.857-0.262l0.5-1.232v-5.495h4.47v7.119H135.012z
	 M138.056,31.394l1.971-1.513v-2.837h0.917v2.835l1.928,1.51l-0.607,0.584l-1.788-1.396l-1.812,1.398L138.056,31.394z
	 M133.626,29.948l0.789-0.679l0.788,0.679l-0.788,0.679L133.626,29.948z M142.096,29.47v-3.578h-3.264v3.578h-0.916v-4.368h5.096
	v4.368H142.096z M145.609,28.644l0.778-0.67l0.778,0.67l-0.778,0.669L145.609,28.644z M133.636,27.673l0.779-0.67l0.779,0.671
	l-0.779,0.655L133.636,27.673z M132.504,24.058v-2.623h15.961v2.623H132.504z M147.549,23.269v-1.045h-14.128v1.045H147.549z
	 M132.504,20.443V18.52h-1.003v-0.789h8.338v-0.953h1.292v0.953h8.316v0.789h-16.026v1.153h15.107v0.771H132.504z"/>
<path fill="#34607B" d="M147.787,32.087v-6.329h-2.716v5.097l-1.028,1.045l-0.471-0.337l0.893-0.904v-5.423h3.93v6.33h0.919v0.521
	H147.787z M135.166,32.087v-0.521h0.689v-5.808h-2.945v4.937l-0.499,1.227l-0.565-0.173l0.458-1.129v-5.384h4.159v6.852H135.166z
	 M138.276,31.405l1.905-1.464v-2.764h0.606v2.761l1.863,1.462l-0.398,0.385l-1.777-1.389l-1.799,1.392L138.276,31.405z
	 M133.846,29.948l0.569-0.49l0.568,0.49l-0.568,0.489L133.846,29.948z M142.25,29.336v-3.578h-3.572v3.578h-0.606v-4.101h4.785
	v4.101H142.25z M145.829,28.644l0.559-0.48l0.559,0.48l-0.559,0.481L145.829,28.644z M133.856,27.672l0.559-0.48l0.56,0.481
	l-0.56,0.47L133.856,27.672z M132.659,23.924v-2.356h15.651v2.356H132.659z M133.267,23.402h14.437V22.09h-14.437V23.402z
	 M132.659,20.31v-1.924h-1.003v-0.522h8.337v-0.953h0.982v0.953h8.316v0.522h-16.025v1.42h15.106v0.504H132.659z"/>
<g enable-background="new    ">
	<path fill="#FFFFFF" d="M154.34,10.538h-4.008V5.035h0.883v1.053h3.125V10.538z M153.491,9.688V6.869h-2.276v2.819H153.491z"/>
	<path fill="#FFFFFF" d="M159.979,10.538h-4.28v-4.45h4.28v2.514h-3.431v1.155h3.431V10.538z M159.13,7.82V6.903h-2.582V7.82H159.13
		z"/>
	<path fill="#FFFFFF" d="M160.861,6.088h0.68V4.967h0.85v1.121h1.732v0.815h-1.732v2.785h1.698v0.782h-2.548V6.903h-0.68V6.088z"/>
	<path fill="#FFFFFF" d="M169.219,10.538h-4.077V7.922h3.193V6.903h-2.14V6.088h3.023V10.538z M168.335,9.723V8.704h-2.344v1.019
		H168.335z"/>
</g>
</svg>
