<?xml version="1.0" encoding="utf-8"?>
<!-- Generator: Adobe Illustrator 16.0.0, SVG Export Plug-In . SVG Version: 6.00 Build 0)  -->
<!DOCTYPE svg PUBLIC "-//W3C//DTD SVG 1.1//EN" "http://www.w3.org/Graphics/SVG/1.1/DTD/svg11.dtd">
<svg version="1.1" id="Layer_1" xmlns="http://www.w3.org/2000/svg" xmlns:xlink="http://www.w3.org/1999/xlink" x="0px" y="0px"
	 width="174.083px" height="39.333px" viewBox="0 0 174.083 39.333" enable-background="new 0 0 174.083 39.333"
	 xml:space="preserve">
<path fill="#34607B" d="M172.004,11.669c0,1.104-0.896,2-2,2h-20.457c-1.104,0-2-0.896-2-2V7.336c0-1.104,0.896-2,2-2h20.457
	c1.104,0,2,0.896,2,2V11.669z"/>
<g>
	<path fill="#34607B" d="M12.156,32.15c-3.087,0-5.758-1.092-7.94-3.246c-2.175-2.175-3.277-4.833-3.277-7.901
		c0-2.751,0.921-5.237,2.738-7.391c2.239-2.64,5.174-3.978,8.724-3.978c1.942,0,3.843,0.531,5.65,1.58l0.162,0.093v4.644
		l-0.534-0.447c-1.77-1.479-3.619-2.23-5.497-2.23c-2.063,0-3.826,0.751-5.238,2.232c-1.426,1.479-2.149,3.313-2.149,5.454
		c0,2.113,0.722,3.92,2.146,5.369c1.422,1.448,3.19,2.183,5.255,2.183c1.067,0,1.98-0.175,2.715-0.517
		c0.426-0.178,0.865-0.416,1.317-0.713c0.454-0.301,0.942-0.67,1.45-1.098l0.535-0.45v4.729l-0.165,0.094
		C16.189,31.616,14.206,32.15,12.156,32.15z"/>
	<path fill="#34607B" d="M17.889,11.495v3.76c-1.838-1.537-3.74-2.306-5.706-2.306c-2.166,0-3.99,0.778-5.473,2.334
		c-1.492,1.547-2.238,3.439-2.238,5.678c0,2.211,0.746,4.076,2.238,5.597s3.321,2.278,5.487,2.278c1.119,0,2.07-0.182,2.853-0.545
		c0.437-0.184,0.89-0.43,1.358-0.737c0.468-0.31,0.962-0.683,1.481-1.119v3.842c-1.82,1.033-3.731,1.55-5.732,1.55
		c-3.012,0-5.583-1.052-7.712-3.152c-2.121-2.12-3.18-4.678-3.18-7.67c0-2.686,0.887-5.079,2.662-7.18
		c2.184-2.575,5.009-3.863,8.476-3.863C14.294,9.959,16.123,10.471,17.889,11.495z"/>
	<polygon fill="#34607B" points="21.873,39 27.231,28.975 21.072,17.824 25.381,17.824 29.243,25.083 32.846,17.824 37.047,17.824 
		26.121,39 	"/>
	<path fill="#34607B" d="M27.602,28.972l-5.979-10.824h3.562l4.067,7.644l3.794-7.644h3.467L25.922,38.676h-3.507L27.602,28.972z"/>
	<polygon fill="#34607B" points="49.596,24.697 45.874,33.215 38.392,17.824 42.573,17.824 45.833,24.934 49.597,16.108 
		53.386,24.933 56.608,17.824 60.777,17.824 53.279,33.217 	"/>
	<path fill="#34607B" d="M42.364,18.148l3.479,7.589l3.753-8.804l3.781,8.804l3.439-7.589h3.44l-6.961,14.291l-3.699-8.558
		l-3.74,8.558L38.91,18.148H42.364z"/>
	<path fill="#34607B" d="M64.104,31.769V17.824h3.721v13.945H64.104z M65.971,14.966c-0.642,0-1.197-0.229-1.649-0.682
		c-0.453-0.453-0.683-1.012-0.683-1.664c0-0.623,0.229-1.169,0.683-1.622c0.453-0.453,1.003-0.682,1.635-0.682
		c0.642,0,1.197,0.229,1.649,0.682c0.452,0.441,0.682,0.992,0.682,1.635c0,0.642-0.229,1.197-0.682,1.65
		C67.166,14.736,66.615,14.966,65.971,14.966z"/>
	<path fill="#34607B" d="M63.965,12.621c0-0.536,0.196-1,0.587-1.392c0.391-0.391,0.86-0.587,1.406-0.587
		c0.555,0,1.028,0.196,1.419,0.587c0.392,0.383,0.587,0.851,0.587,1.406c0,0.556-0.195,1.029-0.587,1.42
		c-0.382,0.391-0.851,0.586-1.406,0.586c-0.555,0-1.028-0.195-1.419-0.586C64.161,13.664,63.965,13.185,63.965,12.621z M67.5,18.148
		v13.294h-3.071V18.148H67.5z"/>
	<path fill="#34607B" d="M81.527,31.769v-7.742c0-1.233-0.162-2.081-0.483-2.521c-0.292-0.42-0.855-0.629-1.675-0.629
		c-0.908,0-1.528,0.281-1.896,0.857c-0.382,0.605-0.577,1.717-0.577,3.301v6.733h-3.735V17.824h3.735v0.828
		c0.995-0.794,2.104-1.196,3.306-1.196c1.636,0,2.935,0.528,3.86,1.569c0.797,0.884,1.201,2.321,1.201,4.271v8.475L81.527,31.769
		L81.527,31.769z"/>
	<path fill="#34607B" d="M73.486,18.148h3.085v1.229c1.073-1.064,2.284-1.597,3.63-1.597c1.546,0,2.752,0.486,3.617,1.46
		c0.746,0.828,1.119,2.178,1.119,4.053v8.148h-3.085v-7.416c0-1.309-0.182-2.213-0.546-2.713c-0.354-0.509-1-0.764-1.938-0.764
		c-1.019,0-1.742,0.336-2.169,1.009c-0.419,0.664-0.628,1.821-0.628,3.476v6.407h-3.085V18.148z"/>
</g>
<path fill="#34607B" d="M102.633,32.105v-0.989h3.572V16.947h1.172v15.158H102.633z M91.434,32.086v-9.584h7.689v5.377h-3.99v-1.008
	h2.82V23.51h-5.349v7.587h5.54l1.182-1.582l0.987,0.551l-1.526,2.021H91.434z M102.236,28.383v-9.8h1.171v9.8H102.236z
	 M95.28,18.605l-4.303,3.076l-0.727-0.755l4.441-3.222v-0.811h1.171v0.811l4.459,3.22l-0.749,0.767L95.28,18.605z"/>
<path fill="#34607B" d="M110.762,32.07v-1.008h5.703V16.875h1.172v14.187h3.906V16.875h1.17v14.187h5.705v1.008H110.762z
	 M111.136,19.939l1.147-0.196l1.973,8.097l-1.131,0.205L111.136,19.939z M124.943,27.84l1.954-8.097l1.148,0.196l-1.971,8.106
	L124.943,27.84z"/>
<path fill="#34607B" d="M147.631,32.221v-6.329h-2.404v5.012l-1.164,1.185l-0.711-0.51l0.959-0.969v-5.507h4.238v6.33h0.918v0.789
	L147.631,32.221L147.631,32.221z M135.012,32.221v-0.789h0.689v-5.54h-2.636v4.825l-0.562,1.373l-0.856-0.262l0.5-1.231v-5.495h4.47
	v7.119H135.012z M138.056,31.394l1.971-1.513v-2.838h0.917v2.836l1.928,1.51l-0.606,0.584l-1.788-1.396l-1.812,1.398L138.056,31.394
	z M133.625,29.948l0.789-0.679l0.789,0.679l-0.789,0.68L133.625,29.948z M142.096,29.47v-3.578h-3.264v3.578h-0.916v-4.368h5.096
	v4.368H142.096z M145.609,28.644l0.778-0.67l0.777,0.67l-0.777,0.669L145.609,28.644z M133.636,27.672l0.778-0.67l0.779,0.672
	l-0.779,0.654L133.636,27.672z M132.504,24.058v-2.623h15.961v2.623H132.504z M147.549,23.269v-1.045H133.42v1.045H147.549z
	 M132.504,20.443V18.52H131.5v-0.789h8.338v-0.953h1.293v0.953h8.315v0.789H133.42v1.153h15.107v0.771L132.504,20.443
	L132.504,20.443z"/>
<path fill="#34607B" d="M147.788,32.086v-6.328h-2.717v5.097l-1.027,1.045l-0.472-0.337l0.894-0.904v-5.423h3.93v6.33h0.919v0.521
	H147.788z M135.167,32.086v-0.521h0.688v-5.808h-2.944v4.937l-0.5,1.228l-0.564-0.174l0.458-1.129v-5.384h4.159v6.853h-1.297V32.086
	z M138.276,31.405l1.905-1.464v-2.765h0.606v2.762l1.862,1.462l-0.397,0.386l-1.777-1.39l-1.799,1.392L138.276,31.405z
	 M133.846,29.948l0.568-0.49l0.568,0.49l-0.568,0.489L133.846,29.948z M142.25,29.336v-3.578h-3.572v3.578h-0.606v-4.102h4.785
	v4.102H142.25z M145.829,28.644l0.56-0.479l0.559,0.479l-0.559,0.481L145.829,28.644z M133.856,27.672l0.559-0.48l0.561,0.48
	l-0.561,0.471L133.856,27.672z M132.659,23.924v-2.356h15.651v2.356H132.659z M133.267,23.402h14.437V22.09h-14.437V23.402z
	 M132.659,20.31v-1.924h-1.003v-0.521h8.337v-0.953h0.982v0.953h8.316v0.521h-16.025v1.42h15.105v0.504H132.659z"/>
<g enable-background="new    ">
	<path fill="#FFFFFF" d="M154.059,12.372h-4.434V6.283h0.977v1.165h3.457V12.372z M153.119,11.431V8.312h-2.517v3.118H153.119z"/>
	<path fill="#FFFFFF" d="M160.297,12.372h-4.734V7.448h4.734v2.782h-3.796v1.278h3.796V12.372z M159.357,9.364V8.35h-2.855v1.014
		H159.357z"/>
	<path fill="#FFFFFF" d="M161.273,7.448h0.752v-1.24h0.941v1.24h1.917V8.35h-1.917v3.081h1.877v0.866h-2.818V8.35h-0.752V7.448z"/>
	<path fill="#FFFFFF" d="M170.521,12.372h-4.512V9.477h3.533V8.35h-2.369V7.448h3.346v4.924H170.521z M169.542,11.47v-1.127h-2.595
		v1.127H169.542z"/>
</g>
</svg>
