<?xml version="1.0" encoding="utf-8"?>
<!-- Generator: Adobe Illustrator 16.0.0, SVG Export Plug-In . SVG Version: 6.00 Build 0)  -->
<!DOCTYPE svg PUBLIC "-//W3C//DTD SVG 1.1//EN" "http://www.w3.org/Graphics/SVG/1.1/DTD/svg11.dtd">
<svg version="1.1" id="Layer_1" xmlns="http://www.w3.org/2000/svg" xmlns:xlink="http://www.w3.org/1999/xlink" x="0px" y="0px"
	 width="142px" height="26px" viewBox="0 0 142 26" enable-background="new 0 0 142 26" xml:space="preserve">
<g>
	<path fill="#34607B" d="M10.011,0.176c-3.101,0-5.665,1.168-7.62,3.475C0.804,5.53,0,7.701,0,10.104c0,2.68,0.962,5.002,2.862,6.9
		c1.905,1.883,4.238,2.837,6.935,2.837c1.791,0,3.522-0.468,5.146-1.392l0.145-0.081v-4.13l-0.467,0.393
		c-0.444,0.374-0.871,0.696-1.267,0.958c-0.396,0.259-0.779,0.467-1.15,0.623c-0.642,0.299-1.44,0.449-2.372,0.449
		c-1.803,0-3.348-0.641-4.589-1.905C4,13.49,3.37,11.913,3.37,10.066c0-1.869,0.63-3.472,1.877-4.762
		c1.233-1.294,2.771-1.95,4.575-1.95c1.64,0,3.255,0.654,4.8,1.947l0.467,0.39V1.637l-0.142-0.083
		C13.368,0.64,11.708,0.176,10.011,0.176z"/>
	<polygon fill="#34607B" points="24.72,13.667 21.347,7.328 17.584,7.328 22.963,17.066 18.283,25.824 21.993,25.824 31.536,7.328 
		27.867,7.328 	"/>
	<polygon fill="#34607B" points="45.807,13.536 42.496,5.83 39.21,13.537 36.362,7.328 32.71,7.328 39.245,20.771 42.496,13.331 
		45.713,20.771 52.262,7.328 48.62,7.328 	"/>
	<path fill="#34607B" d="M56.785,0.772c-0.552,0-1.032,0.2-1.428,0.595s-0.597,0.872-0.597,1.417c0,0.568,0.201,1.057,0.597,1.452
		c0.396,0.396,0.88,0.597,1.44,0.597c0.562,0,1.043-0.201,1.429-0.597c0.396-0.395,0.595-0.879,0.595-1.439
		c0-0.563-0.201-1.043-0.595-1.429C57.831,0.972,57.347,0.772,56.785,0.772z"/>
	<rect x="55.167" y="7.328" fill="#34607B" width="3.25" height="12.178"/>
	<path fill="#34607B" d="M72.598,8.377c-0.808-0.91-1.941-1.371-3.372-1.371c-1.049,0-2.018,0.351-2.887,1.044V7.328h-3.261v12.178
		h3.261v-5.879c0-1.383,0.17-2.354,0.504-2.884c0.321-0.503,0.863-0.749,1.655-0.749c0.717,0,1.208,0.184,1.465,0.549
		c0.279,0.387,0.422,1.126,0.422,2.203v6.76h3.262v-7.4C73.646,10.404,73.293,9.149,72.598,8.377z"/>
</g>
<g>
	<polygon fill="#34607B" points="92.021,18.726 86.627,18.726 86.627,10.338 91.835,10.338 91.835,14.612 89.088,14.612 
		89.088,15.593 92.975,15.593 92.975,9.356 85.486,9.356 85.486,19.69 92.648,19.69 94.135,17.724 93.173,17.187 	"/>
	<polygon fill="#34607B" points="99.871,18.745 96.393,18.745 96.393,19.708 101.011,19.708 101.011,4.946 99.871,4.946 	"/>
	<rect x="96.006" y="6.541" fill="#34607B" width="1.141" height="9.543"/>
	<polygon fill="#34607B" points="115.945,4.878 114.807,4.878 114.807,18.69 111.003,18.69 111.003,4.878 109.861,4.878 
		109.861,18.69 104.307,18.69 104.307,19.672 121.501,19.672 121.501,18.69 115.945,18.69 	"/>
	<polygon fill="#34607B" points="107.711,15.555 106.261,7.194 105.214,7.768 106.668,16.354 	"/>
	<polygon fill="#34607B" points="120.629,8.353 119.614,7.601 118.117,15.555 119.167,16.084 	"/>
	<polygon fill="#34607B" points="125.48,8.353 141.084,8.353 141.084,7.601 126.373,7.601 126.373,6.479 141.979,6.479 
		141.979,5.71 133.88,5.71 133.88,4.782 132.62,4.782 132.62,5.71 124.501,5.71 124.501,6.479 125.48,6.479 	"/>
	<polygon fill="#34607B" points="141.102,19.051 141.102,12.89 136.975,12.89 136.975,18.252 136.04,19.196 136.734,19.69 
		137.869,18.538 137.869,13.657 140.212,13.657 140.212,19.819 142,19.819 142,19.051 	"/>
	<polygon fill="#34607B" points="133.695,14.778 132.807,14.778 132.807,17.542 130.886,19.015 131.48,19.582 133.238,18.219 
		134.982,19.58 135.574,19.011 133.695,17.54 	"/>
	<polygon fill="#34607B" points="130.748,17.142 131.643,17.142 131.643,13.657 134.818,13.657 134.818,17.142 135.711,17.142 
		135.711,12.89 130.748,12.89 	"/>
	<polygon fill="#34607B" points="125.133,18.239 124.646,19.44 125.48,19.694 126.025,18.356 126.025,13.657 128.592,13.657 
		128.592,19.051 127.922,19.051 127.922,19.819 129.484,19.819 129.484,12.89 125.133,12.89 	"/>
	<polygon fill="#34607B" points="127.342,16.946 126.572,17.606 127.342,18.269 128.109,17.606 	"/>
	<path fill="#34607B" d="M125.48,11.871h15.541V9.317H125.48V11.871z M140.129,10.086v1.019h-13.756v-1.019H140.129z"/>
	<polygon fill="#34607B" points="138.24,16.337 138.998,16.989 139.757,16.337 138.998,15.685 	"/>
	<polygon fill="#34607B" points="128.1,15.394 127.342,14.739 126.583,15.394 127.342,16.03 	"/>
</g>
<polygon fill="#34607B" points="91.403,6.611 86.901,6.611 86.276,8.237 85.306,7.884 86.256,5.534 92.047,5.534 92.997,7.938 
	92.032,8.245 "/>
</svg>
